<svg width="128" height="128" viewBox="0 0 128 128" fill="none" xmlns="http://www.w3.org/2000/svg">
<rect width="128" height="128" fill="white"/>
<g clip-path="url(#clip0_6240_586394)">
<path d="M11.642 58.286C13.1475 56.8561 14.6736 55.9122 16.4501 55.4168C18.938 54.7302 21.5958 55.01 23.8834 56.1994C26.1711 57.3888 27.9172 59.3987 28.7668 61.8206C30.5358 66.8243 28.0913 72.2654 23.1006 74.4318C18.3395 76.4991 12.6111 74.4318 10.1591 69.7813C9.41423 68.4071 9.01886 66.8728 9.00738 65.3122C9.00738 58.7701 9.00738 52.2393 8.99609 45.7047C8.99609 44.9009 9.2238 44.2804 10.0537 44.0542C10.8836 43.828 11.6232 44.4916 11.6326 45.5271C11.6514 47.5196 11.6439 49.5103 11.6457 51.5084C11.642 53.671 11.642 55.8467 11.642 58.286ZM26.6968 65.1252C26.6968 63.6471 26.2557 62.2022 25.4292 60.973C24.6028 59.7438 23.428 58.7855 22.0535 58.2192C20.6789 57.6528 19.1662 57.5039 17.7064 57.7912C16.2466 58.0785 14.9053 58.7891 13.852 59.8332C12.7987 60.8773 12.0806 62.2081 11.7885 63.6575C11.4963 65.1068 11.6432 66.6096 12.2107 67.9761C12.7781 69.3425 13.7405 70.5112 14.9764 71.3346C16.2123 72.1579 17.6662 72.5989 19.1543 72.6019C20.1441 72.6038 21.1246 72.4119 22.0396 72.0371C22.9546 71.6622 23.7862 71.1118 24.4867 70.4173C25.1873 69.7228 25.7431 68.898 26.1224 67.9899C26.5016 67.0818 26.6968 66.1083 26.6968 65.1252V65.1252Z" fill="black"/>
<path d="M77.696 72.0262C77.696 72.4748 77.696 72.7738 77.696 73.0673C77.696 76.1489 77.696 79.2312 77.696 82.314C77.696 83.385 77.1841 84.0168 76.3787 83.9963C75.5732 83.9757 75.0614 83.3308 75.0614 82.2785C75.0614 76.5196 75.0331 70.7608 75.0614 65.0019C75.0934 59.757 79.4197 55.2823 84.6061 55.0449C90.1162 54.7981 94.7926 58.7701 95.344 64.1664C95.8728 69.357 92.1298 74.2019 86.9095 75.0654C83.972 75.5514 81.3148 74.8972 78.9625 73.071C78.5823 72.7701 78.2135 72.4505 77.696 72.0262ZM92.7508 65.1421C92.7541 63.6642 92.3164 62.2185 91.493 60.9876C90.6696 59.7567 89.4973 58.7958 88.1244 58.2262C86.7514 57.6567 85.2393 57.5041 83.7791 57.7876C82.3188 58.0712 80.9759 58.7782 79.92 59.8194C78.8641 60.8607 78.1426 62.1893 77.8465 63.6376C77.5504 65.086 77.6932 66.5889 78.2566 67.9567C78.8201 69.3245 79.779 70.4957 81.0123 71.3225C82.2456 72.1493 83.6979 72.5945 85.1857 72.6019C86.176 72.6068 87.1575 72.4176 88.074 72.0451C88.9905 71.6726 89.824 71.1242 90.5268 70.4312C91.2295 69.7382 91.7877 68.9143 92.1694 68.0067C92.551 67.0991 92.7486 66.1256 92.7508 65.1421Z" fill="black"/>
<path d="M100.843 72.0411C100.843 75.3738 100.843 78.5402 100.843 81.7066C100.858 82.0486 100.853 82.3913 100.828 82.7327C100.741 83.4692 100.338 83.9458 99.565 83.9944C98.8781 84.0393 98.2985 83.4617 98.2157 82.7066C98.2073 82.5509 98.2073 82.3949 98.2157 82.2393C98.2157 76.5421 98.2006 70.8374 98.2157 65.1477C98.2207 62.6628 99.1429 60.266 100.808 58.411C102.472 56.5561 104.764 55.3718 107.249 55.0822C112.188 54.4617 117.006 57.815 118.25 62.7458C118.737 64.7466 118.597 66.8475 117.848 68.7668C117.098 70.686 115.776 72.3319 114.059 73.4837C112.341 74.6355 110.31 75.2382 108.238 75.2108C106.165 75.1835 104.151 74.5275 102.465 73.3309C101.955 72.957 101.483 72.5477 100.843 72.0411ZM115.898 65.1664C115.906 63.6883 115.473 62.241 114.653 61.0073C113.833 59.7737 112.664 58.809 111.292 58.2352C109.921 57.6614 108.409 57.5042 106.948 57.7835C105.487 58.0628 104.141 58.7661 103.082 59.8045C102.023 60.8428 101.298 62.1697 100.998 63.6174C100.697 65.0651 100.836 66.5687 101.396 67.9382C101.956 69.3077 102.912 70.4817 104.143 71.3117C105.374 72.1418 106.826 72.5908 108.314 72.6019C109.304 72.6093 110.286 72.4225 111.204 72.0521C112.121 71.6818 112.956 71.1353 113.661 70.4438C114.365 69.7524 114.926 68.9296 115.31 68.0227C115.693 67.1158 115.893 66.1426 115.898 65.1589V65.1664Z" fill="black"/>
<path d="M46.2682 75.2187C42.5045 75.2187 37.5176 75.2187 33.7558 75.2187C32.3801 75.2187 31.9718 74.8075 31.968 73.4374C31.968 72.1608 31.9567 70.8841 31.968 69.6075C32.0019 66.2991 34.4746 63.8505 37.8225 63.8131C39.9226 63.7963 42.0246 63.8131 44.1248 63.8131C46.0612 63.8019 47.4067 62.5196 47.3954 60.7215C47.3842 58.9234 46.048 57.6486 44.1003 57.6486C40.5888 57.6393 37.0772 57.6486 33.5619 57.6486C32.4987 57.6486 31.8194 56.9981 31.9887 56.1533C32.1261 55.4617 32.5815 55.0505 33.306 55.0505C37.1318 55.0505 40.9595 54.9626 44.7853 55.0879C47.7511 55.1851 50.0884 57.9047 50.03 60.8823C49.9717 63.8598 47.5159 66.3533 44.5124 66.4262C42.3182 66.4804 40.124 66.4262 37.926 66.4449C35.8108 66.4542 34.6177 67.6505 34.6026 69.757C34.6026 70.6598 34.6026 71.5608 34.6026 72.5608H46.2042C45.7733 72.1215 45.4402 71.7944 45.1203 71.4561C44.4353 70.7271 44.3882 69.9832 44.981 69.4C45.5343 68.858 46.2852 68.9028 46.9739 69.5682C48.0303 70.5888 49.0722 71.6237 50.0997 72.6729C50.8524 73.4449 50.8524 74.2037 50.0997 74.957C49.0672 76.0013 48.0252 77.0361 46.9739 78.0617C46.272 78.7458 45.4571 78.7907 44.9133 78.2056C44.3694 77.6206 44.4522 76.9084 45.1353 76.243L46.2682 75.2187Z" fill="black"/>
<path d="M69.9795 71.9626C68.2312 73.6 66.404 74.6748 64.206 75.0524C61.7891 75.4721 59.3008 75.0109 57.199 73.7536C55.0972 72.4963 53.5231 70.5275 52.7662 68.2094C51.2325 63.5252 53.4248 58.3589 57.898 56.114C64.5428 52.7888 72.5068 57.5495 72.6141 64.9383C72.6517 67.8038 72.6254 70.671 72.6141 73.5365C72.6141 74.6038 72.106 75.2187 71.278 75.2187C70.45 75.2187 69.9927 74.5851 69.9833 73.5028C69.9795 73.0598 69.9795 72.6243 69.9795 71.9626ZM62.469 72.6019C63.9571 72.5986 65.4107 72.1572 66.6464 71.3337C67.882 70.5101 68.8442 69.3413 69.4113 67.9748C69.9785 66.6083 70.1251 65.1056 69.8328 63.6563C69.5404 62.2071 68.8222 60.8765 67.7688 59.8325C66.7154 58.7886 65.3741 58.0782 63.9144 57.7911C62.4547 57.5039 60.942 57.653 59.5676 58.2194C58.1931 58.7857 57.0185 59.744 56.1921 60.9732C55.3657 62.2024 54.9247 63.6472 54.9247 65.1252C54.9247 66.1085 55.1199 67.0821 55.4993 67.9903C55.8786 68.8985 56.4346 69.7235 57.1354 70.418C57.8362 71.1125 58.668 71.6629 59.5832 72.0376C60.4984 72.4123 61.4791 72.6041 62.469 72.6019V72.6019Z" fill="black"/>
</g>
<defs>
<clipPath id="clip0_6240_586394">
<rect width="109.537" height="39.9963" fill="white" transform="translate(9 44)"/>
</clipPath>
</defs>
</svg>
